<svg width="400" height="56" viewBox="0 0 400 56" fill="none" xmlns="http://www.w3.org/2000/svg">
<g clip-path="url(#clip0_1317_1680)">
<path d="M357.831 51.3562V4.47388H363.121L368.991 13.9548C371.547 7.7196 377.34 4.47389 383.9 4.47389C393.1 4.47389 400.001 9.76952 400.001 23.5211V51.3562H389.352V25.8272C389.352 17.2859 386.455 13.2715 379.811 13.2715C372.655 13.2715 368.48 18.9088 368.48 25.7418V51.3562H357.831Z" fill="#141A22"/>
<path d="M282.442 51.3555V4.44824H288.024L293.602 13.954C295.987 7.71886 301.695 4.47315 307.999 4.47315C314.559 4.47315 320.474 7.37721 322.859 14.8936H322.956C325.256 7.9751 331.682 4.47315 338.668 4.47315C347.528 4.47315 354.343 9.76878 354.343 23.5203V51.3555H343.694V25.8265C343.694 17.2852 340.883 13.2707 334.579 13.2707C327.763 13.2707 323.759 18.908 323.759 25.7411V51.3555H313.025V25.8265C313.025 17.2852 310.214 13.2707 303.995 13.2707C297.095 13.2707 293.091 18.908 293.091 25.7411V51.3555H282.442Z" fill="#141A22"/>
<path d="M253.015 51.3274C242.622 51.3274 236.743 45.1199 236.743 33.3851V4.44507H247.392V30.5789C247.392 38.3171 250.204 42.6539 257.104 42.6539C264.005 42.6539 268.264 37.1266 268.264 29.9837V4.44507H278.913V51.3557H273.331L267.753 41.8035C265.453 47.926 259.745 51.3274 253.015 51.3274Z" fill="#141A22"/>
<path d="M212.383 51.3562C198.923 51.3562 190.148 42.0819 190.148 27.9576C190.148 13.8333 199.008 4.47388 212.724 4.47388C224.139 4.47388 232.318 11.3658 232.914 21.3209H222.521C221.584 16.0456 217.58 13.2377 212.468 13.2377C204.971 13.2377 200.882 19.1087 200.882 27.9576C200.882 37.5723 205.483 42.5924 212.383 42.5924C218.261 42.5924 222.095 39.1889 222.691 34.1689H233.084C232.403 44.6344 223.969 51.3562 212.383 51.3562Z" fill="#141A22"/>
<path d="M166.077 51.3562C152.617 51.3562 143.842 42.0819 143.842 27.9576C143.842 13.8333 152.702 4.47388 166.418 4.47388C177.833 4.47388 186.012 11.3658 186.608 21.3209H176.215C175.278 16.0456 171.274 13.2377 166.162 13.2377C158.665 13.2377 154.576 19.1087 154.576 27.9576C154.576 37.5723 159.176 42.5924 166.077 42.5924C171.955 42.5924 175.789 39.1889 176.385 34.1689H186.778C186.097 44.6344 177.663 51.3562 166.077 51.3562Z" fill="#141A22"/>
<path fill-rule="evenodd" clip-rule="evenodd" d="M96.0803 27.9576C96.0803 41.9542 104.697 51.1882 117.951 51.354V51.3562C117.978 51.3562 118.004 51.3562 118.03 51.3561C118.065 51.356 118.099 51.3559 118.133 51.3557C118.194 51.356 118.254 51.3562 118.315 51.3562V51.3539C123.644 51.2869 127.758 49.7424 130.77 47.0035L133.522 51.3562H140.249V4.47388H129.719V8.07426C126.894 5.91324 123.232 4.65713 118.655 4.49244L118.656 4.47388C118.481 4.47388 118.306 4.4754 118.133 4.47845C117.96 4.4754 117.786 4.47388 117.611 4.47388V4.49223C104.492 4.95664 96.0803 14.1952 96.0803 27.9576ZM129.452 27.9576C129.452 37.4876 124.933 42.5036 118.133 42.5912C111.334 42.5036 106.814 37.4876 106.814 27.9576C106.814 19.2143 110.806 13.3783 118.133 13.2402C125.46 13.3783 129.452 19.2143 129.452 27.9576Z" fill="#141A22"/>
<path d="M63.2682 46.3011L46.3495 18.2289C45.4412 16.7219 43.2623 16.7247 42.3579 18.2341L25.536 46.311C22.9828 50.5724 26.0404 55.9999 30.9942 55.9999C33.2256 55.9999 35.2942 54.8278 36.4473 52.9102L42.8639 42.2392C43.5411 41.1129 45.1664 41.1076 45.851 42.2293L52.3922 52.9476C53.5495 54.8438 55.6056 55.9999 57.821 55.9999C62.78 55.9999 65.8351 50.5603 63.2682 46.3011Z" fill="#B63800"/>
<path d="M43.0382 42.1083C48.1367 35.6743 57.2848 36.5517 61.3928 43.4243L46.3455 18.2499C45.4407 16.7363 43.2558 16.7352 42.3495 18.2478L25.5441 46.297C22.9873 50.5645 26.0492 55.9998 31.0102 55.9998C33.2332 55.9998 35.2959 54.838 36.4543 52.9334L43.0382 42.1083Z" fill="#FE5104"/>
<path fill-rule="evenodd" clip-rule="evenodd" d="M42.3204 41.6047L42.3542 41.5621C46.2919 36.593 52.4833 35.6834 57.2985 38.2798L45.596 18.7013C45.0305 17.7553 43.665 17.7546 43.0985 18.7L26.2931 46.7492C24.0866 50.4319 26.729 55.1224 31.0102 55.1224C32.9286 55.1224 34.7086 54.1198 35.7083 52.4762L42.3204 41.6047ZM46.3455 18.2499C45.4407 16.7363 43.2558 16.7352 42.3495 18.2478L25.5441 46.297C22.9873 50.5645 26.0492 55.9998 31.0102 55.9998C33.2332 55.9998 35.2959 54.838 36.4543 52.9334L43.0382 42.1083C47.0896 36.9957 53.6981 36.4997 58.3028 39.96C59.4929 40.8543 60.5491 42.0129 61.3928 43.4243L46.3455 18.2499Z" fill="url(#paint0_linear_1317_1680)"/>
<path d="M38.8676 3.54784L23.4231 29.256C20.952 33.3692 15.0107 33.3711 12.5371 29.2595C11.3173 27.2321 11.3164 24.6934 12.5348 22.6651L17.3544 14.6418C17.8228 13.8621 17.2634 12.8679 16.3564 12.8679H6.42012C4.19144 12.8679 2.12276 11.7058 0.957124 9.79902C-1.66354 5.51204 1.40945 0 6.42012 0H36.8717C38.6857 0 39.8044 1.98852 38.8676 3.54784Z" fill="#3D84EA"/>
<path d="M6.42012 0H36.8713C38.6854 0 39.804 1.9887 38.8671 3.54802L24.3925 27.6368C28.0343 20.9104 24.1012 13.4528 16.8176 12.8679H6.42012C4.19144 12.8679 2.12276 11.7058 0.957125 9.79902C-1.66354 5.51204 1.40945 0 6.42012 0Z" fill="#81AFF2"/>
<path fill-rule="evenodd" clip-rule="evenodd" d="M16.8525 11.9906L16.8873 11.9934C22.709 12.4609 26.5458 16.9678 26.6418 22.1949L38.1186 3.09487C38.7043 2.1203 38.0051 0.877358 36.8713 0.877358H6.42012C2.09272 0.877358 -0.56122 5.63776 1.70208 9.34015C2.70876 10.9869 4.49535 11.9906 6.42012 11.9906H16.8525ZM38.8671 3.54802C39.804 1.9887 38.6854 0 36.8713 0H6.42012C1.40945 0 -1.66354 5.51204 0.957125 9.79902C2.12276 11.7058 4.19144 12.8679 6.42012 12.8679H16.8176C22.7289 13.3426 26.4333 18.3442 25.6725 23.8079C25.4959 25.0762 25.0786 26.3695 24.3925 27.6368L38.8671 3.54802Z" fill="url(#paint1_linear_1317_1680)"/>
<path d="M50.1202 3.54712L65.3874 28.9807C67.8694 33.1155 73.8439 33.1099 76.3182 28.9704C77.5319 26.9398 77.5298 24.4026 76.3127 22.374L71.634 14.576C71.1662 13.7963 71.7255 12.8027 72.6323 12.8027H82.417C84.6481 12.8027 86.717 11.6322 87.8724 9.71627C90.445 5.45011 87.385 0 82.417 0H52.1165C50.3029 0 49.1842 1.98779 50.1202 3.54712Z" fill="#B1B110"/>
<path d="M50.1206 3.54712L65.3828 28.9725C67.8671 33.111 73.847 33.1054 76.3234 28.9622C77.5347 26.9357 77.5364 24.4044 76.3278 22.3763L71.8814 14.9151C68.968 10.8207 70.279 0.731131 80.3303 0H52.1169C50.3033 0 49.1845 1.98779 50.1206 3.54712Z" fill="#DCDC5B"/>
<path fill-rule="evenodd" clip-rule="evenodd" d="M66.1314 28.5197L50.8692 3.09431C50.2842 2.11972 50.9834 0.877358 52.1169 0.877358H74.5438C72.5371 2.12917 71.1937 3.92033 70.4303 5.87627C69.1274 9.21413 69.5096 13.0628 71.1489 15.3949L75.5777 22.8267C76.6208 24.5771 76.6194 26.7618 75.574 28.5108C73.4366 32.0867 68.2755 32.0915 66.1314 28.5197ZM71.8814 14.9151L76.3278 22.3763C77.5364 24.4044 77.5347 26.9357 76.3234 28.9622C73.847 33.1054 67.8671 33.111 65.3828 28.9725L50.1206 3.54712C49.1845 1.98779 50.3033 0 52.1169 0H80.3303C78.856 0.107246 77.5696 0.415851 76.4571 0.877358C69.9853 3.56211 69.3953 11.4213 71.8814 14.9151Z" fill="url(#paint2_linear_1317_1680)"/>
</g>
<defs>
<linearGradient id="paint0_linear_1317_1680" x1="42.1642" y1="28.8017" x2="40.6964" y2="44.5931" gradientUnits="userSpaceOnUse">
<stop stop-color="#E24601" stop-opacity="0"/>
<stop offset="1" stop-color="#E24601" stop-opacity="0.7"/>
</linearGradient>
<linearGradient id="paint1_linear_1317_1680" x1="34.2981" y1="3.21698" x2="3.26812" y2="6.11954" gradientUnits="userSpaceOnUse">
<stop stop-color="#3D81E4" stop-opacity="0"/>
<stop offset="1" stop-color="#3D81E4" stop-opacity="0.4"/>
</linearGradient>
<linearGradient id="paint2_linear_1317_1680" x1="55.4205" y1="7.01886" x2="70.0825" y2="10.1794" gradientUnits="userSpaceOnUse">
<stop stop-color="#C9C937" stop-opacity="0"/>
<stop offset="1" stop-color="#C9C937" stop-opacity="0.4"/>
</linearGradient>
<clipPath id="clip0_1317_1680">
<rect width="400" height="56" fill="white"/>
</clipPath>
</defs>
</svg>
