<svg width="164" height="56" viewBox="0 0 164 56" fill="none" xmlns="http://www.w3.org/2000/svg">
<path d="M20.2291 23.9645C23.5952 23.9645 26.3239 26.7029 26.3239 30.0808V48.4825H24.0482C21.939 48.4825 20.2291 46.7666 20.2291 44.6499C18.6003 47.3275 15.3427 49.1125 11.8224 49.1125C5.25467 49.1125 0.000488281 43.8099 0.000488281 36.1972C0.000488281 28.7946 5.0445 23.3344 11.98 23.3344C15.3427 23.3344 18.6003 24.8045 20.2291 27.377V23.9645ZM13.0834 43.4424C16.8664 43.4424 20.124 40.2923 20.124 36.1972C20.124 31.9971 16.6562 29.0046 13.0309 29.0046C9.09022 29.0046 6.09534 32.2597 6.09534 36.1972C6.09534 40.1348 9.09022 43.4424 13.0834 43.4424Z" fill="#101828"/>
<path d="M39.6439 49.1125C34.7575 49.1125 29.8711 46.1725 29.7661 40.9223H34.3306C34.9726 40.9223 35.4733 41.465 35.7264 42.0571C36.2357 43.2488 37.562 44.1774 39.5388 44.1774C41.9558 44.1774 43.532 42.9699 43.532 41.3949C43.532 40.0298 42.4812 39.3998 40.6422 38.9798L37.3846 38.1398C31.8677 36.6698 30.4491 33.7297 30.4491 30.6321C30.4491 26.7995 34.2321 23.3344 39.5914 23.3344C43.9523 23.3344 48.8913 25.5395 48.8387 30.9996H44.1691C43.5271 30.9996 43.0351 30.4488 42.7461 29.8735C42.2388 28.8638 41.0534 28.2696 39.749 28.2696C37.8575 28.2696 36.5439 29.3721 36.5439 30.8946C36.5439 32.1546 37.7524 32.8897 39.171 33.2047L43.1117 34.2547C48.6286 35.6722 49.6269 39.1373 49.6269 41.3949C49.6269 46.3825 44.6354 49.1125 39.6439 49.1125Z" fill="#101828"/>
<path d="M66.3287 23.3344C72.7913 23.3344 78.4133 28.3746 78.4133 36.2497C78.4133 44.0724 72.8439 49.1125 66.3812 49.1125C63.2813 49.1125 59.8661 47.8525 58.1847 45.2274V56C54.8186 56 52.0899 53.2616 52.0899 49.8836V23.9645H54.9411C56.7325 23.9645 58.1847 25.4218 58.1847 27.2195C59.8661 24.5945 63.3864 23.3344 66.3287 23.3344ZM65.3829 43.4424C69.166 43.4424 72.3185 40.3448 72.3185 36.2497C72.3185 32.2071 69.166 29.0046 65.3829 29.0046C61.6525 29.0046 58.2898 31.9446 58.2898 36.2497C58.2898 40.6073 61.8626 43.4424 65.3829 43.4424Z" fill="#101828"/>
<path d="M105.972 35.9872C105.972 36.0418 105.972 36.097 105.971 36.1529C105.957 37.388 104.906 38.3498 103.675 38.3498H86.8469C87.5299 41.7624 90.157 43.5999 93.835 43.5999C95.6126 43.5999 97.3662 43.0711 98.7539 42.111C99.8304 41.3662 101.316 41.1008 102.361 41.8902L104.553 43.5474C102.294 47.1175 97.9332 49.1125 93.4672 49.1125C86.1639 49.1125 80.5944 43.8624 80.5944 36.1972C80.5944 28.3746 86.4266 23.3344 93.4672 23.3344C100.455 23.3344 105.972 28.3221 105.972 35.9872ZM86.8469 34.0972H99.2812C99.6273 34.0972 99.8991 33.7943 99.8288 33.4542C99.2142 30.4841 96.7111 28.7421 93.5197 28.7421C90.2621 28.7421 87.5825 30.3696 86.8469 34.0972Z" fill="#101828"/>
<path d="M121.979 23.3344C123.45 23.3344 125.026 23.6495 125.972 24.1745L124.763 29.9496C123.345 29.2146 122.084 29.0571 121.191 29.0571C117.197 29.0571 114.991 33.0472 114.991 39.9248V48.4825C111.596 48.4825 108.843 45.7205 108.843 42.3134V23.9645H109.706C112.596 23.9645 114.938 26.315 114.938 29.2146C116.252 25.1195 118.931 23.3344 121.979 23.3344Z" fill="#101828"/>
<path d="M138.627 49.1125C131.639 49.1125 125.596 43.9674 125.596 36.1972C125.596 28.4271 131.639 23.3344 138.627 23.3344C145.615 23.3344 151.71 28.4271 151.71 36.1972C151.71 43.9674 145.615 49.1125 138.627 49.1125ZM138.627 43.4424C142.41 43.4424 145.562 40.5023 145.562 36.1972C145.562 31.9971 142.41 29.0046 138.627 29.0046C134.844 29.0046 131.744 31.9971 131.744 36.1972C131.744 40.5023 134.844 43.4424 138.627 43.4424Z" fill="#101828"/>
<path d="M154.653 1.71546L163.962 18.2308C164.072 18.4252 163.932 18.666 163.709 18.666H160.53C158.025 18.666 155.712 17.3179 154.471 15.1341L151.987 10.7639C151.862 10.5436 151.546 10.5442 151.421 10.7649L148.971 15.112C147.734 17.3082 145.414 18.666 142.9 18.666H139.712C139.49 18.666 139.35 18.4249 139.46 18.2305L148.793 1.71238C149.391 0.654033 150.51 0 151.722 0C152.936 0 154.056 0.655385 154.653 1.71546Z" fill="url(#paint0_linear_202_6373)"/>
<defs>
<linearGradient id="paint0_linear_202_6373" x1="152.024" y1="8.84694" x2="159.826" y2="21.4129" gradientUnits="userSpaceOnUse">
<stop stop-color="#01D464"/>
<stop offset="1" stop-color="#FDFD6C"/>
</linearGradient>
</defs>
</svg>
