<svg width="1437" height="336" viewBox="0 0 304 56" fill="none" xmlns="http://www.w3.org/2000/svg">
<path d="M254.382 0H267.505L278.941 15.1111L290.377 0H303.5L285.503 23.7814L303.5 47.5626H290.377L278.941 32.4516L278.937 32.4576L271.255 22.2712L271.246 22.2834L254.382 0Z" fill="url(#paint0_linear_202_6348)"/>
<path d="M265.809 32.4632L254.382 47.5626H267.505L278.932 32.4632H265.809Z" fill="url(#paint1_linear_202_6348)"/>
<path d="M265.809 32.4633L254.382 47.5627H267.505L278.932 32.4633H265.809Z" fill="#FE5104"/>
<path fill-rule="evenodd" clip-rule="evenodd" d="M199.127 27.9117C199.127 40.2104 208.129 47.6467 221.632 47.6467C235.278 47.6467 244.137 40.1388 244.137 27.9117C244.137 15.5416 235.207 8.17676 221.632 8.17676C213.876 8.17676 207.635 10.6281 203.711 15.0105H208.454V16.6066L200.144 21.2273C199.477 23.2561 199.127 25.4915 199.127 27.9117ZM233.992 27.9117C233.992 35.1336 229.348 39.7813 221.632 39.7813C213.916 39.7813 209.344 35.1336 209.344 27.9117C209.344 20.6899 213.916 16.0422 221.632 16.0422C229.42 16.0422 233.992 20.6184 233.992 27.9117Z" fill="#141A22"/>
<path d="M192.3 47.5703C186.227 47.5703 182.512 44.7817 182.512 38.7038V1.9306L192.514 0V8.25356H209.176V16.9336H192.514V35.5577C192.514 38.1318 193.8 38.8469 196.301 38.8469H198.332V47.5703H192.3Z" fill="#141A22"/>
<path d="M111.398 47.6467C97.8948 47.6467 88.8928 40.2104 88.8928 27.9117C88.8928 15.6846 97.8233 8.17676 111.398 8.17676C124.972 8.17676 133.903 15.5416 133.903 27.9117C133.903 40.1388 125.044 47.6467 111.398 47.6467ZM111.398 39.7813C119.114 39.7813 123.758 35.1336 123.758 27.9117C123.758 20.6184 119.185 16.0422 111.398 16.0422C103.682 16.0422 99.1093 20.6899 99.1093 27.9117C99.1093 35.1336 103.682 39.7813 111.398 39.7813Z" fill="#141A22"/>
<path d="M42.4817 56V8.25352L52.0552 10.1688L52.4124 15.3988H52.8411C55.1273 11.1801 60.1999 8.24841 67.7015 8.24841C78.9182 8.24841 86.4913 15.8278 86.4913 27.9119C86.4913 39.9245 78.9182 47.6469 67.6301 47.6469C61.0572 47.6469 55.4131 44.7152 53.0554 40.139H52.6268V56H42.4817ZM64.7008 39.853C71.6309 39.853 76.2748 35.3483 76.2748 27.9119C76.2748 20.3325 71.6309 16.0423 64.7008 16.0423C57.0563 16.0423 52.6268 20.833 52.6268 26.6248V28.9129C52.6268 34.9192 57.0563 39.853 64.7008 39.853Z" fill="#141A22"/>
<path fill-rule="evenodd" clip-rule="evenodd" d="M136.389 27.8402C136.389 39.8528 144.748 47.5752 158.322 47.5752C169.682 47.5752 179.041 41.9264 179.898 32.917H169.753C168.61 37.1357 164.181 39.7098 158.68 39.7098C151.106 39.7098 146.534 35.4196 146.534 27.8402C146.534 20.7614 151.178 16.0422 158.751 16.0422C163.861 16.0422 167.77 18.0263 169.265 21.5535L179.114 19.6558C176.955 12.6922 169.42 8.17676 158.822 8.17676C145.391 8.17676 136.389 15.6846 136.389 27.8402Z" fill="#141A22"/>
<path d="M0.500488 34.7227C0.929153 42.5166 7.85924 47.4503 20.5049 47.4503C33.8649 47.4503 40.152 42.7311 40.152 35.5807C40.152 27.3578 35.1509 25.0697 22.0052 23.8541C14.6464 23.1391 11.6458 22.4241 11.6458 19.0634C11.6458 15.7027 15.2894 14.2012 20.5049 14.2012C25.3792 14.2012 28.8565 16.0187 29.3483 19.9304L38.6871 18.131C37.0856 11.6181 30.5589 7.98035 20.5763 7.98035C8.78802 7.98035 1.78648 12.6281 1.78648 19.8499C1.78648 27.2863 6.93047 29.7889 19.9333 31.0045C27.7207 31.7195 30.1498 32.4346 30.1498 36.2243C30.1498 39.6564 26.5776 41.158 20.7906 41.158C14.2892 41.158 10.717 38.8699 10.4312 34.7227H0.500488Z" fill="#141A22"/>
<defs>
<linearGradient id="paint0_linear_202_6348" x1="272.403" y1="5.267" x2="297.79" y2="47.544" gradientUnits="userSpaceOnUse">
<stop stop-color="#2B7EF7"/>
<stop offset="1" stop-color="#81AFF2"/>
</linearGradient>
<linearGradient id="paint1_linear_202_6348" x1="272.403" y1="5.267" x2="297.79" y2="47.544" gradientUnits="userSpaceOnUse">
<stop stop-color="#2B7EF7"/>
<stop offset="1" stop-color="#81AFF2"/>
</linearGradient>
</defs>
</svg>
