<svg width="87" height="16" viewBox="0 0 87 16" fill="none" xmlns="http://www.w3.org/2000/svg">
<path d="M72.5981 0H76.3507L79.6208 4.31745L82.8909 0H86.6435L81.4971 6.79467L86.6435 13.5893H82.8909L79.6208 9.27189L79.6195 9.27359L77.4228 6.36321L77.4204 6.3667L72.5981 0Z" fill="url(#paint0_linear_897_1520)"/>
<path d="M75.8657 9.27521L72.5982 13.5893H76.3507L79.6183 9.27521H75.8657Z" fill="url(#paint1_linear_897_1520)"/>
<path fill-rule="evenodd" clip-rule="evenodd" d="M56.7976 7.97475C56.7976 11.4886 59.3717 13.6133 63.2329 13.6133C67.135 13.6133 69.6683 11.4682 69.6683 7.97475C69.6683 4.44043 67.1146 2.33618 63.2329 2.33618C61.015 2.33618 59.2306 3.03656 58.1084 4.28868H59.4646V4.7447L57.0883 6.06491C56.8977 6.64457 56.7976 7.28325 56.7976 7.97475ZM66.7672 7.97475C66.7672 10.0381 65.4393 11.3661 63.2329 11.3661C61.0265 11.3661 59.719 10.0381 59.719 7.97475C59.719 5.91136 61.0265 4.58344 63.2329 4.58344C65.4598 4.58344 66.7672 5.89093 66.7672 7.97475Z" fill="white"/>
<path d="M54.8455 13.5915C53.109 13.5915 52.0466 12.7948 52.0466 11.0582V0.551599L54.9068 0V2.35816H59.6712V4.83816H54.9068V10.1593C54.9068 10.8948 55.2745 11.0991 55.9895 11.0991H56.5703V13.5915H54.8455Z" fill="black"/>
<path d="M31.7112 13.6133C27.85 13.6133 25.2759 11.4886 25.2759 7.97475C25.2759 4.48129 27.8296 2.33618 31.7112 2.33618C35.5928 2.33618 38.1465 4.44043 38.1465 7.97475C38.1465 11.4682 35.6132 13.6133 31.7112 13.6133ZM31.7112 11.3661C33.9176 11.3661 35.2455 10.0381 35.2455 7.97475C35.2455 5.89093 33.938 4.58344 31.7112 4.58344C29.5048 4.58344 28.1973 5.91136 28.1973 7.97475C28.1973 10.0381 29.5048 11.3661 31.7112 11.3661Z" fill="black"/>
<path d="M12.0049 16V2.35815L14.7424 2.90537L14.8446 4.39965H14.9672C15.6209 3.1943 17.0714 2.35669 19.2165 2.35669C22.424 2.35669 24.5895 4.52223 24.5895 7.97483C24.5895 11.407 22.424 13.6134 19.1961 13.6134C17.3166 13.6134 15.7026 12.7758 15.0285 11.4683H14.9059V16H12.0049ZM18.3585 11.3866C20.3402 11.3866 21.6681 10.0995 21.6681 7.97483C21.6681 5.80929 20.3402 4.58351 18.3585 4.58351C16.1725 4.58351 14.9059 5.9523 14.9059 7.60709V8.26084C14.9059 9.97692 16.1725 11.3866 18.3585 11.3866Z" fill="black"/>
<path fill-rule="evenodd" clip-rule="evenodd" d="M38.8579 7.95432C38.8579 11.3865 41.2482 13.5929 45.1298 13.5929C48.3781 13.5929 51.0544 11.9789 51.2995 9.40482H48.3985C48.0717 10.6102 46.805 11.3456 45.2319 11.3456C43.0664 11.3456 41.7589 10.1199 41.7589 7.95432C41.7589 5.93179 43.0868 4.58344 45.2524 4.58344C46.7136 4.58344 47.8313 5.15035 48.2588 6.15814L51.0753 5.61593C50.4578 3.62632 48.3033 2.33618 45.2728 2.33618C41.432 2.33618 38.8579 4.48129 38.8579 7.95432Z" fill="black"/>
<path d="M0 9.9207C0.122577 12.1475 2.10425 13.5572 5.72028 13.5572C9.54062 13.5572 11.3384 12.2088 11.3384 10.1659C11.3384 7.81645 9.90835 7.1627 6.1493 6.8154C4.04506 6.6111 3.18702 6.40681 3.18702 5.44662C3.18702 4.48643 4.22892 4.0574 5.72028 4.0574C7.11409 4.0574 8.10844 4.57671 8.24909 5.69432L10.9195 5.18023C10.4616 3.31938 8.59525 2.28003 5.74071 2.28003C2.36983 2.28003 0.367733 3.60795 0.367733 5.67134C0.367733 7.79602 1.83866 8.51105 5.55685 8.85836C7.78367 9.06265 8.47828 9.26695 8.47828 10.3497C8.47828 11.3303 7.4568 11.7594 5.802 11.7594C3.94291 11.7594 2.92143 11.1056 2.83971 9.9207H0Z" fill="black"/>
<defs>
<linearGradient id="paint0_linear_897_1520" x1="77.8423" y1="8.98354" x2="84.0547" y2="-0.585288" gradientUnits="userSpaceOnUse">
<stop stop-color="#0075FF"/>
<stop offset="0.995929" stop-color="#FF3535"/>
</linearGradient>
<linearGradient id="paint1_linear_897_1520" x1="77.8423" y1="8.98354" x2="84.0547" y2="-0.585288" gradientUnits="userSpaceOnUse">
<stop stop-color="#0075FF"/>
<stop offset="0.995929" stop-color="#FF3535"/>
</linearGradient>
</defs>
</svg>
