<svg width="172" height="56" viewBox="0 0 172 56" fill="none" xmlns="http://www.w3.org/2000/svg">
<g clip-path="url(#clip0_159_5500)">
<path d="M20.9458 46.2268C21.8608 42.9801 24.8625 40.6059 28.4333 40.6059C32.0041 40.6059 35.0057 42.9801 35.9207 46.2268V31.2081L52.7927 14.4887C51.6991 15.074 50.4382 15.4053 49.1103 15.4053C44.8142 15.4053 41.3327 11.9598 41.3327 7.70821C41.3327 6.31676 41.7121 5.00263 42.3705 3.87622L28.4333 17.6471L14.5519 3.90935C15.1879 5.02471 15.5561 6.31676 15.5561 7.69716C15.5561 11.9488 12.0746 15.3943 7.77854 15.3943C6.41718 15.3943 5.13393 15.0519 4.01807 14.4335L20.9458 31.1971V46.2268Z" fill="#1E2737"/>
<path d="M7.77809 15.3942C12.0735 15.3942 15.5557 11.9481 15.5557 7.6971C15.5557 3.44611 12.0735 0 7.77809 0C3.48264 0 0.000488281 3.44611 0.000488281 7.6971C0.000488281 11.9481 3.48264 15.3942 7.77809 15.3942Z" fill="#B3BCCD"/>
<path d="M49.1209 15.3942C53.4163 15.3942 56.8985 11.9481 56.8985 7.6971C56.8985 3.44611 53.4163 0 49.1209 0C44.8254 0 41.3433 3.44611 41.3433 7.6971C41.3433 11.9481 44.8254 15.3942 49.1209 15.3942Z" fill="#DCDC5B"/>
<path d="M28.4324 56C32.7278 56 36.21 52.5539 36.21 48.3029C36.21 44.0519 32.7278 40.6058 28.4324 40.6058C24.1369 40.6058 20.6548 44.0519 20.6548 48.3029C20.6548 52.5539 24.1369 56 28.4324 56Z" fill="#EC6048"/>
<path d="M112.212 49.33C115.415 49.33 119.019 47.8943 120.715 44.9679L120.76 48.579H126.964V20.7612H120.559V35.9125C120.559 41.2574 117.211 43.3446 113.652 43.3446C109.445 43.3446 107.403 40.2304 107.403 35.6695V20.7612H100.998V36.6082C101.009 44.482 105.104 49.33 112.212 49.33ZM69.2847 7.78549L84.5497 30.1148V48.5901H91.2561V30.17L107.057 7.78549H99.759L88.4441 24.4717L76.9953 7.78549H69.2847ZM131.673 48.5901H137.922L137.966 44.9789C139.964 47.7508 143.568 49.2858 147.418 49.2858C154.928 49.2858 161.377 43.4881 161.377 34.7309C161.377 25.8632 155.128 20.0213 147.418 20.0213C143.814 20.0213 140.165 21.6005 138.067 24.284V7.78549H131.673V48.5901ZM138.178 34.5763C138.178 29.2314 142.53 26.0067 146.681 26.0067C151.334 26.0067 154.939 29.5737 154.939 34.5763C154.939 39.5788 151.334 43.2893 146.681 43.2893C142.084 43.2893 138.178 39.9212 138.178 34.5763ZM163.397 11.1537C163.397 13.5279 165.294 15.4605 167.704 15.4605C170.103 15.4605 172.012 13.5279 172.012 11.1537C172.012 8.77938 170.059 6.89099 167.704 6.89099C165.35 6.90203 163.397 8.77938 163.397 11.1537ZM164.446 48.5901H170.851V20.7612H164.446V48.5901Z" fill="#101828"/>
</g>
<defs>
<clipPath id="clip0_159_5500">
<rect width="172" height="56" fill="white" transform="translate(0.000488281)"/>
</clipPath>
</defs>
</svg>
